<svg id="Capa_1" enable-background="new 0 0 512 512" height="512" viewBox="0 0 512 512" width="512" xmlns="http://www.w3.org/2000/svg"><g><g><path d="m419.374 62.916c-17.202-9.107-54.511-14.939-80.064-24.165l-83.315-3.883-83.31 3.883c-17.006 6.139-39.222 10.776-57.249 15.875 4.646 7.913 3.086 142.306 3.086 142.306h274.945l38.274 14.864 58.019-79.936c-20.935-24.544-54.647-60.612-70.386-68.944z" fill="#f5fcff"/><path d="m344.529 141.779-212.082-34.863c-4.214-20.415-10.282-37.923-17.011-52.29-9.062 2.563-17.067 5.243-22.822 8.29-15.739 8.333-49.45 44.4-70.386 68.944l22.948 50.859 43.913 29.777 29.431-15.564h274.945l29.431 15.564 23.752-16.711z" fill="#d6e0f4"/><path d="m393.476 152.204c0-64.512-38.938-91.2-99.183-113.454l-38.298-3.882-38.287 3.882c-40.253 14.869-70.994 31.717-86.963 60.504l-2.258 371.626c0 12.914 86.549 23.655 147.969 23.655 41.901 0 90.545-14.964 117.012-22.242z" fill="#d97b7b"/><path d="m130.744 99.255c-7.932 14.298-12.22 31.541-12.22 52.949 0 4.382-.002 328.641-.002 328.641 0 12.914 76.053 23.655 137.473 23.655s137.473-10.741 137.473-23.655v-8.551c-26.467 7.277-75.643 12.277-117.544 12.277-61.42 0-137.473-10.741-137.473-23.655 0 0 0-238.219 0-293.177-.001-27.598-2.803-47.814-7.707-68.484z" fill="#ca4646"/><path d="m501.281 145.822c-3.026-3.841-6.974-8.632-11.521-13.963l-49.989 60.288 2.708 18 24.018-3.866 34.55-41.668c4.5-5.426 4.597-13.254.234-18.791z" fill="#8a94db"/><path d="m422.898 212.496 15.388 8.138c6.32 3.716 14.402 2.3 19.082-3.344l9.129-11.009-26.726-14.134z" fill="#717ed4"/><path d="m10.707 145.822c-4.362 5.537-4.265 13.365.234 18.791l43.679 52.677c4.68 5.644 12.762 7.06 19.082 3.344l15.388-8.138-66.862-80.636c-4.547 5.331-8.494 10.121-11.521 13.962z" fill="#717ed4"/><path d="m339.293 38.799c-10.676-3.854-19.297-8.309-23.536-13.859-7.971-10.434-26.755-17.44-59.757-17.44s-51.786 7.006-59.756 17.44c-4.241 5.551-12.863 10.006-23.541 13.861z" fill="#8a94db"/><path d="m342.352 149.29c-26.847-15.5-56.051-23.99-85.466-23.99s-58.619 8.49-85.466 23.99l-15-25.981c26.847-15.5 64.021-28.01 100.466-28.01s73.619 12.51 100.466 28.01z" fill="#f5fcff"/></g><g><path d="m507.185 141.181c-16.019-20.331-63.022-73.635-84.292-84.895-10.556-5.589-27.067-9.755-44.548-14.166-22.091-5.574-49.583-12.512-56.628-21.733-10.336-13.528-32.446-20.387-65.717-20.387s-55.381 6.859-65.717 20.387c-7.045 9.221-34.537 16.159-56.628 21.733-17.48 4.411-33.992 8.577-44.548 14.166-21.27 11.26-68.273 64.564-84.292 84.896-6.507 8.259-6.358 20.127.353 28.22l43.68 52.679c4.414 5.323 10.774 8.145 17.253 8.145 3.833 0 7.708-.988 11.245-3.03l33.679-17.811v149.351c0 4.142 3.357 7.5 7.5 7.5s7.5-3.358 7.5-7.5v-206.53c0-28.726 7.894-50.114 24.841-67.309 14.246-14.454 35.316-26.397 68.195-38.645h73.881c28.691 10.685 47.807 20.813 61.852 32.762 1.411 1.201 3.139 1.788 4.856 1.788 2.123 0 4.232-.896 5.716-2.64 2.685-3.155 2.303-7.888-.852-10.572-9.041-7.692-19.824-14.632-33.313-21.338h6.582c10.951 3.867 23.751 7.097 36.892 10.414 16.58 4.184 32.24 8.135 41.2 12.878 13.08 6.925 42.832 37.937 64.084 62.401l-62.824 75.767c-1.441 1.738-2.022 4.033-1.583 6.248s1.854 4.113 3.851 5.169l15.252 8.066c9.518 5.493 21.473 3.356 28.498-5.115l43.68-52.678c6.71-8.093 6.858-19.962.352-28.221zm-251.185-126.181c37.173 0 49.662 9.081 53.797 14.493.459.601.962 1.183 1.485 1.757h-110.564c.523-.574 1.026-1.157 1.485-1.757 4.135-5.412 16.624-14.493 53.797-14.493zm-185.802 199.006c-.101.053-.199.107-.296.165-3.167 1.863-7.164 1.16-9.508-1.666l-43.68-52.679c-2.227-2.685-2.275-6.622-.116-9.362 1.665-2.114 3.542-4.434 5.586-6.907l55.244 66.625zm69.984-139.64c-19.62 19.907-29.157 45.368-29.157 77.838v40.211l-20.05 10.603-58.933-71.074c21.251-24.464 51.003-55.477 64.083-62.402 8.96-4.743 24.62-8.695 41.2-12.878 13.141-3.316 25.941-6.547 36.892-10.414h6.649c-17.383 8.652-30.467 17.75-40.684 28.116zm355.103 85.461-43.68 52.679c-2.343 2.826-6.344 3.527-9.508 1.666-.097-.058-.195-.112-.296-.165l-7.23-3.824 55.244-66.625c2.046 2.475 3.92 4.792 5.586 6.907 2.16 2.739 2.111 6.677-.116 9.362zm-109.557-67.785c10.261 16.722 15.248 36.401 15.248 60.163v328.64c0 11.149-15.069 18.124-52.012 24.075-27.524 4.433-62.276 7.08-92.964 7.08s-65.44-2.647-92.964-7.081c-36.942-5.951-52.012-12.926-52.012-24.075v-92.216c0-4.142 3.357-7.5 7.5-7.5s7.5 3.358 7.5 7.5v90.704c3.183 2.44 15.673 7.356 45.32 11.687 26.022 3.801 56.878 5.981 84.656 5.981s58.634-2.18 84.655-5.981c29.647-4.331 42.138-9.247 45.32-11.687v-327.127c0-20.912-4.264-38.025-13.033-52.318-2.166-3.53-1.061-8.148 2.47-10.315 3.529-2.167 8.148-1.061 10.316 2.47zm-198.586 24.835c-7.095 2.792-13.93 5.911-20.4 9.309l7.494 12.98c26.488-13.999 54.914-21.367 82.65-21.367 27.735 0 56.162 7.368 82.651 21.367l7.495-12.981c-28.012-14.721-61.175-23.385-90.146-23.385-14.132 0-29.002 1.96-44.197 5.825-4.012 1.021-8.097-1.405-9.117-5.419-1.021-4.015 1.405-8.097 5.42-9.118 16.403-4.172 32.517-6.288 47.895-6.288 33.788 0 72.748 10.847 104.217 29.015 1.723.995 2.979 2.632 3.494 4.554s.246 3.969-.749 5.691l-15 25.981c-1.389 2.406-3.91 3.751-6.502 3.751-1.272 0-2.562-.324-3.743-1.006-26.047-15.038-54.304-22.986-81.717-22.986s-55.67 7.948-81.716 22.986c-1.723.995-3.771 1.263-5.691.75-1.921-.515-3.56-1.772-4.554-3.495l-15-25.981c-.995-1.723-1.264-3.77-.749-5.691s1.771-3.559 3.494-4.554c8.994-5.192 18.744-9.868 28.979-13.895 3.856-1.518 8.209.378 9.726 4.233s-.38 8.208-4.234 9.724zm53.459 197.326c-3.316 2.474-4.004 7.167-1.533 10.487 1.472 1.979 3.733 3.024 6.023 3.024 1.556 0 3.126-.482 4.471-1.483 2.058-1.53 50.342-38.177 58.59-107.522.409-2.642.621-5.346.621-8.101 0-29.099-23.674-52.772-52.772-52.772s-52.772 23.674-52.772 52.772 23.672 52.772 52.771 52.772c9.889 0 19.152-2.735 27.072-7.487-15.612 37.737-42.021 57.97-42.471 58.31zm15.399-65.823c-20.828 0-37.772-16.945-37.772-37.772s16.944-37.772 37.772-37.772 37.772 16.945 37.772 37.772c0 1.706-.114 3.387-.334 5.033-.047.224-.084.452-.11.684-.012.1-.023.204-.035.304-2.893 17.975-18.515 31.751-37.293 31.751z"/></g></g></svg>